<?xml version="1.0" encoding="utf-8"?>
<!-- Generator: Adobe Illustrator 27.5.0, SVG Export Plug-In . SVG Version: 6.00 Build 0)  -->
<svg version="1.1" id="Layer_1" xmlns="http://www.w3.org/2000/svg" xmlns:xlink="http://www.w3.org/1999/xlink" x="0px" y="0px"
	 viewBox="0 0 1300 1300" style="enable-background:new 0 0 1300 1300;" xml:space="preserve">
<g id="XMLID_6_">
	<g id="XMLID_1_">
		
			<linearGradient id="XMLID_00000014633416164408796480000003462296120897861506_" gradientUnits="userSpaceOnUse" x1="610.8004" y1="731.8318" x2="862.5291" y2="295.8249">
			<stop  offset="0" style="stop-color:#A70E13"/>
			<stop  offset="1" style="stop-color:#E11B22"/>
		</linearGradient>
		<path id="XMLID_7_" style="fill:url(#XMLID_00000014633416164408796480000003462296120897861506_);" d="M976.343,556.592
			c0.586-3.043,1.139-6.098,1.637-9.171c2.727-16.803,4.195-34.024,4.195-51.596v-2.299c0-9.522-0.49-18.917-1.297-28.216
			c-16.575-111.862-112.977-197.702-229.45-197.702c-65.625,0-124.84,27.292-167.04,71.092
			c19.014-7.953,40.571-12.403,64.462-12.403c96.221,0,161.505,79.039,161.505,169.528v2.284
			c0,90.489-59.559,167.245-159.214,167.245c-30.859,0-58.514-8.164-81.878-22.196c-23.444-14.08-42.528-34.096-56.136-57.805
			c-14.601-31.625-22.805-66.811-22.805-103.932c0-2.043,0.105-4.06,0.154-6.092c0.266-11.022,1.319-21.844,2.976-32.465
			l-0.06,0.017c0,0-74.537,360.741,343.712,318.624h0.001C909.39,714.914,959.929,641.783,976.343,556.592z"/>
		
			<linearGradient id="XMLID_00000113339652969361956490000003425476090691385749_" gradientUnits="userSpaceOnUse" x1="646.2092" y1="729.1426" x2="877.8956" y2="327.8499">
			<stop  offset="0" style="stop-color:#A70E13;stop-opacity:0"/>
			<stop  offset="1" style="stop-color:#B11116;stop-opacity:0.6"/>
		</linearGradient>
		<path id="XMLID_3_" style="fill:url(#XMLID_00000113339652969361956490000003425476090691385749_);" d="M772.3,744.926
			c-98.496,0-170.607-27.217-214.331-80.895c-2.283-2.803-4.471-5.655-6.558-8.539c2.478,1.67,4.997,3.275,7.555,4.812
			c27.677,16.622,58.512,25.051,91.998,25.051C754.808,685.355,830,606.607,830,498.109v-2.284
			c0-101.321-72.29-181.714-167.242-188.991c27.364-12.598,57.466-19.226,88.582-19.226c51.143,0,100.573,18.464,139.102,51.991
			c38.01,33.074,62.972,78.528,70.454,128.05c0.786,9.235,1.104,17.706,1.104,25.878v2.299c0,16.015-1.237,32.296-3.849,48.392
			c-0.432,2.664-0.891,5.475-1.491,8.592c-7.607,39.483-22.909,76.305-45.524,109.438c-21.54,31.559-48.726,58.395-80.883,79.829
			C810.098,743.968,790.632,744.926,772.3,744.926z"/>
		
			<linearGradient id="XMLID_00000155850279293581415250000004894614447538515113_" gradientUnits="userSpaceOnUse" x1="630.2294" y1="815.4027" x2="630.2294" y2="176.2493">
			<stop  offset="0" style="stop-color:#E11B22"/>
			<stop  offset="0.7857" style="stop-color:#F37021"/>
			<stop  offset="1" style="stop-color:#FAA61A"/>
		</linearGradient>
		<path id="XMLID_4_" style="fill:url(#XMLID_00000155850279293581415250000004894614447538515113_);" d="M493.452,442.865
			c18.532-118.802,121.166-209.739,245.168-209.739c2.685,0,5.328,0.164,7.992,0.249c81.231,2.581,152.606,44.088,196.022,106.581
			c-54.703-97.92-161.583-163.706-291.492-163.706c-107.714,0-199.805,45.406-259.717,116.574
			c-46.484,55.216-73.599,125.938-73.599,203.003v2.284c0,176.395,140.882,317.293,331.025,317.293
			c71.192,0,135.503-19.895,188.254-53.897h-0.001c-418.249,42.117-343.712-318.624-343.712-318.624L493.452,442.865z"/>
		
			<linearGradient id="XMLID_00000004504685508611980520000009023573631928176789_" gradientUnits="userSpaceOnUse" x1="548.927" y1="795.4028" x2="548.927" y2="196.2495">
			<stop  offset="0" style="stop-color:#E11B22;stop-opacity:0"/>
			<stop  offset="0.7857" style="stop-color:#F37021;stop-opacity:0"/>
			<stop  offset="1" style="stop-color:#FFD400"/>
		</linearGradient>
		<path id="XMLID_2_" style="fill:url(#XMLID_00000004504685508611980520000009023573631928176789_);" d="M648.85,795.403
			c-86.048,0-165.616-30.843-223.297-86.848C368.715,653.369,337,578.63,337,498.109v-2.284c0-35.495,6.515-70.078,18.551-102.789
			c11.726-31.869,29.01-61.252,50.967-87.333c28.592-33.964,64.022-60.775,105.1-79.689c42.898-19.751,89.857-29.766,139.471-29.766
			c38.107,0,75.26,6.116,109.764,17.921c-4.524-0.378-9.06-0.642-13.62-0.786c-0.806-0.026-1.601-0.06-2.404-0.093
			c-1.872-0.078-3.99-0.166-6.214-0.166c-132.471,0-243.513,94.524-264.665,225.014l-0.146,0.692
			c-0.314,1.517-7.651,37.711-4.989,86.273c3.569,65.119,23.657,121.889,58.091,164.171
			c46.167,56.689,116.966,88.419,210.761,94.551C709.26,791.476,679.417,795.403,648.85,795.403z"/>
	</g>
	<g id="XMLID_45_">
		<path id="XMLID_46_" d="M167.457,1010.033V869.967h22.177v121.39h53.108l-2.723,18.676H167.457z"/>
		<path id="XMLID_48_" d="M310.637,1012.367c-16.472,0-30.122-5.997-40.95-17.994c-10.831-11.994-16.244-29.503-16.244-52.525
			c0-23.019,5.511-41.144,16.535-54.373c11.022-13.229,27.557-19.843,49.607-19.843c16.6,0,30.281,5.934,41.047,17.801
			c10.763,11.866,16.146,29.311,16.146,52.33c0,23.022-5.514,41.211-16.536,54.566
			C349.218,1005.689,332.683,1012.367,310.637,1012.367z M314.332,993.692c14.654,0,24.931-4.767,30.834-14.299
			c5.9-9.532,8.852-23.505,8.852-41.922c0-18.414-3.341-31.545-10.019-39.394c-6.681-7.846-15.985-11.769-27.916-11.769
			c-14.915,0-25.29,5.125-31.125,15.368c-5.319,9.469-7.976,23.184-7.976,41.145c0,17.964,3.307,30.931,9.921,38.907
			C293.518,989.704,302.661,993.692,314.332,993.692z"/>
		<path id="XMLID_51_" d="M400.123,939.417c0-29.309,9.465-49.996,28.402-62.057c9.985-6.483,22.241-9.728,36.767-9.728
			c14.396,0,27.946,2.335,40.658,7.004c1.684,0.65,2.593,0.973,2.724,0.973l-5.642,17.119c-0.131,0-1.006-0.226-2.626-0.681
			c-1.623-0.453-3.243-0.906-4.863-1.362c-1.623-0.453-3.729-0.94-6.322-1.459c-2.596-0.517-5.058-0.973-7.393-1.361
			c-5.188-1.037-10.699-1.557-16.536-1.557c-14.526,0-25.128,4.085-31.806,12.256c-6.681,8.171-10.018,21.919-10.018,41.241
			c0,21.919,3.824,36.573,11.478,43.965c3.891,3.764,8.17,6.357,12.839,7.782c4.668,1.428,10.18,2.14,16.535,2.14
			c6.353,0,14.654-0.453,24.901-1.362v-42.214l22.177-2.529v57.389c-0.13,0-1.362,0.291-3.696,0.875
			c-2.334,0.584-4.474,1.104-6.419,1.557c-1.945,0.456-4.639,1.006-8.073,1.653c-3.438,0.65-6.711,1.231-9.824,1.751
			c-7.781,1.036-15.435,1.556-22.955,1.556c-19.326,0-34.207-6.158-44.646-18.48C405.342,981.567,400.123,963.411,400.123,939.417z"
			/>
		<path id="XMLID_53_" d="M595.434,1012.367c-16.471,0-30.122-5.997-40.949-17.994c-10.831-11.994-16.244-29.503-16.244-52.525
			c0-23.019,5.511-41.144,16.535-54.373c11.022-13.229,27.558-19.843,49.606-19.843c16.6,0,30.281,5.934,41.046,17.801
			c10.764,11.866,16.146,29.311,16.146,52.33c0,23.022-5.514,41.211-16.535,54.566
			C634.015,1005.689,617.48,1012.367,595.434,1012.367z M599.131,993.692c14.654,0,24.93-4.767,30.833-14.299
			c5.9-9.532,8.852-23.505,8.852-41.922c0-18.414-3.342-31.545-10.019-39.394c-6.681-7.846-15.984-11.769-27.916-11.769
			c-14.914,0-25.289,5.125-31.125,15.368c-5.319,9.469-7.976,23.184-7.976,41.145c0,17.964,3.307,30.931,9.921,38.907
			C578.315,989.704,587.459,993.692,599.131,993.692z"/>
		<path id="XMLID_56_" d="M710.209,1010.033V887.475h-41.437v-17.508h106.605l-2.723,17.508h-40.27v122.558H710.209z"/>
		<path id="XMLID_58_" d="M796.192,1010.033V869.967h81.121v18.092h-58.944v42.408h51.163v16.925h-51.163v44.549h62.835
			l-2.724,18.092H796.192z"/>
		<path id="XMLID_60_" d="M898.128,1010.033l45.716-72.367l-42.992-66.531l23.733-2.334l35.211,56.026l33.654-56.026l23.344,2.334
			l-43.771,69.255l45.133,69.643h-25.29l-35.6-56.609l-34.044,56.609H898.128z"/>
		<path id="XMLID_62_" d="M1067.374,1010.033V887.475h-41.437v-17.508h106.605l-2.723,17.508h-40.27v122.558H1067.374z"/>
	</g>
	<g id="XMLID_5_">
		<path id="XMLID_8_" style="fill:#FAA61A;" d="M167.457,1104.518v-65.451h5.103v25.71c3.827-5.397,9.813-8.832,16.485-8.832
			c12.658,0,21.195,9.911,21.195,24.925c0,15.209-8.635,24.826-21.195,24.826c-7.065,0-13.149-3.827-16.485-8.733v7.556H167.457z
			 M188.162,1101.083c10.598,0,16.584-8.733,16.584-20.214c0-11.482-5.986-20.313-16.584-20.313c-6.574,0-12.854,4.121-15.602,8.635
			v23.453C175.308,1097.158,181.588,1101.083,188.162,1101.083z"/>
		<path id="XMLID_11_" style="fill:#FAA61A;" d="M275.103,1104.518v-6.967c-3.827,4.318-10.205,8.145-17.074,8.145
			c-9.617,0-14.915-4.513-14.915-15.21v-33.363h5.103v32.186c0,9.224,4.612,11.775,11.481,11.775c6.084,0,12.266-3.63,15.406-7.85
			v-36.111h5.103v47.396H275.103z"/>
		<path id="XMLID_13_" style="fill:#FAA61A;" d="M311.608,1098.14l3.042-3.729c3.042,3.827,8.635,6.967,15.308,6.967
			c7.948,0,12.658-4.121,12.658-9.616c0-12.954-29.928-5.594-29.928-22.667c0-7.262,6.182-13.15,16.878-13.15
			c8.145,0,13.542,3.14,16.976,6.967l-2.846,3.63c-2.747-3.728-7.85-6.28-14.13-6.28c-7.36,0-11.775,3.729-11.775,8.635
			c0,11.874,29.831,4.612,29.831,22.864c0,7.653-5.888,13.934-17.761,13.934C322.205,1105.695,316.318,1103.438,311.608,1098.14z"/>
		<path id="XMLID_15_" style="fill:#FAA61A;" d="M379.022,1045.74c0-2.158,1.865-3.827,3.925-3.827c2.159,0,3.925,1.669,3.925,3.827
			c0,2.159-1.766,3.925-3.925,3.925C380.887,1049.665,379.022,1047.899,379.022,1045.74z M380.396,1104.518v-47.396h5.103v47.396
			H380.396z"/>
		<path id="XMLID_18_" style="fill:#FAA61A;" d="M453.009,1104.518v-32.088c0-9.126-4.612-11.873-11.481-11.873
			c-6.084,0-12.364,3.827-15.406,8.145v35.816h-5.103v-47.396h5.103v7.164c3.434-4.122,10.205-8.341,17.074-8.341
			c9.617,0,14.915,4.71,14.915,15.407v33.166H453.009z"/>
		<path id="XMLID_20_" style="fill:#FAA61A;" d="M490.985,1080.772c0-13.739,9.616-24.827,22.765-24.827
			c14.424,0,22.373,11.383,22.373,25.12v1.374H496.48c0.491,10.303,7.359,18.84,18.546,18.84c5.985,0,11.481-2.257,15.504-6.575
			l2.65,3.337c-4.71,4.906-10.696,7.654-18.546,7.654C500.798,1105.695,490.985,1095.392,490.985,1080.772z M513.652,1060.361
			c-11.186,0-16.78,9.812-17.172,18.055h34.442C530.824,1070.37,525.526,1060.361,513.652,1060.361z"/>
		<path id="XMLID_23_" style="fill:#FAA61A;" d="M564.777,1098.14l3.042-3.729c3.042,3.827,8.635,6.967,15.308,6.967
			c7.948,0,12.659-4.121,12.659-9.616c0-12.954-29.929-5.594-29.929-22.667c0-7.262,6.182-13.15,16.878-13.15
			c8.144,0,13.542,3.14,16.976,6.967l-2.846,3.63c-2.748-3.728-7.85-6.28-14.13-6.28c-7.359,0-11.775,3.729-11.775,8.635
			c0,11.874,29.831,4.612,29.831,22.864c0,7.653-5.888,13.934-17.761,13.934C575.375,1105.695,569.487,1103.438,564.777,1098.14z"/>
		<path id="XMLID_25_" style="fill:#FAA61A;" d="M629.444,1098.14l3.042-3.729c3.041,3.827,8.635,6.967,15.307,6.967
			c7.949,0,12.659-4.121,12.659-9.616c0-12.954-29.929-5.594-29.929-22.667c0-7.262,6.182-13.15,16.879-13.15
			c8.144,0,13.541,3.14,16.976,6.967l-2.846,3.63c-2.748-3.728-7.85-6.28-14.13-6.28c-7.36,0-11.775,3.729-11.775,8.635
			c0,11.874,29.831,4.612,29.831,22.864c0,7.653-5.888,13.934-17.762,13.934C640.041,1105.695,634.154,1103.438,629.444,1098.14z"/>
		<path id="XMLID_27_" style="fill:#FAA61A;" d="M744.253,1095.392v-33.756h-7.85v-4.514h7.85v-12.953h5.201v12.953h9.616v4.514
			h-9.616v32.971c0,3.826,1.57,6.476,4.906,6.476c2.257,0,4.22-1.08,5.299-2.256l1.963,3.925c-1.865,1.766-4.122,2.943-8.047,2.943
			C747.294,1105.695,744.253,1101.868,744.253,1095.392z"/>
		<path id="XMLID_29_" style="fill:#FAA61A;" d="M820.007,1104.518v-5.593c-4.22,4.612-9.518,6.771-16.093,6.771
			c-8.145,0-16.583-5.593-16.583-15.798c0-10.304,8.341-15.7,16.583-15.7c6.575,0,11.972,2.158,16.093,6.771v-9.616
			c0-7.065-5.691-10.892-12.658-10.892c-5.986,0-10.598,2.06-14.915,6.967l-2.846-3.533c4.907-5.298,10.402-7.948,18.252-7.948
			c9.617,0,17.27,4.612,17.27,15.21v33.363H820.007z M820.007,1095.196v-10.401c-3.336-4.417-8.635-6.575-14.326-6.575
			c-7.752,0-12.954,5.005-12.954,11.775c0,6.673,5.201,11.677,12.954,11.677C811.371,1101.672,816.671,1099.513,820.007,1095.196z"
			/>
		<path id="XMLID_32_" style="fill:#FAA61A;" d="M860.729,1116.588l2.944-4.122c4.121,4.907,8.635,6.673,15.798,6.673
			c8.537,0,16.093-4.318,16.093-15.013v-7.555c-3.336,4.906-9.42,8.929-16.485,8.929c-12.56,0-21.097-9.518-21.097-24.727
			c0-15.014,8.536-24.827,21.097-24.827c6.771,0,12.659,3.435,16.485,8.832v-7.654h5.201v47.003
			c0,14.425-9.812,19.625-21.293,19.625C871.426,1123.751,866.323,1122.279,860.729,1116.588z M895.565,1092.252v-23.06
			c-2.747-4.612-9.028-8.635-15.602-8.635c-10.5,0-16.584,8.733-16.584,20.215c0,11.481,6.084,20.116,16.584,20.116
			C886.537,1100.887,892.817,1096.864,895.565,1092.252z"/>
		<path id="XMLID_35_" style="fill:#FAA61A;" d="M936.19,1104.518v-65.451h5.103v65.451H936.19z"/>
		<path id="XMLID_37_" style="fill:#FAA61A;" d="M975.441,1045.74c0-2.158,1.864-3.827,3.925-3.827c2.158,0,3.925,1.669,3.925,3.827
			c0,2.159-1.767,3.925-3.925,3.925C977.305,1049.665,975.441,1047.899,975.441,1045.74z M976.815,1104.518v-47.396h5.103v47.396
			H976.815z"/>
		<path id="XMLID_40_" style="fill:#FAA61A;" d="M1049.429,1104.518v-32.088c0-9.126-4.612-11.873-11.482-11.873
			c-6.083,0-12.363,3.827-15.406,8.145v35.816h-5.103v-47.396h5.103v7.164c3.435-4.122,10.205-8.341,17.075-8.341
			c9.616,0,14.915,4.71,14.915,15.407v33.166H1049.429z"/>
		<path id="XMLID_42_" style="fill:#FAA61A;" d="M1087.403,1080.772c0-13.739,9.617-24.827,22.765-24.827
			c14.425,0,22.374,11.383,22.374,25.12v1.374h-39.644c0.491,10.303,7.36,18.84,18.547,18.84c5.986,0,11.481-2.257,15.504-6.575
			l2.65,3.337c-4.71,4.906-10.696,7.654-18.546,7.654C1097.217,1105.695,1087.403,1095.392,1087.403,1080.772z M1110.071,1060.361
			c-11.186,0-16.779,9.812-17.172,18.055h34.443C1127.243,1070.37,1121.944,1060.361,1110.071,1060.361z"/>
	</g>
</g>
</svg>
